<svg width="24" height="24" viewBox="0 0 24 24" fill="none" xmlns="http://www.w3.org/2000/svg">
<path fill-rule="evenodd" clip-rule="evenodd" d="M9.31499 1.35846C7.88536 2.10319 6.71572 2.73337 6.71597 2.75901C6.7166 2.82516 10.1471 4.56251 10.2689 4.55828C10.3243 4.55642 10.7261 4.37147 11.1617 4.14732L11.954 3.73984L12.8192 4.18457L13.6843 4.62939L15.1012 3.99272C17.2361 3.03337 17.4579 2.92824 17.4231 2.89292C17.377 2.84606 16.6112 2.43468 14.5337 1.34091C13.5296 0.812285 12.5551 0.293981 12.368 0.189102C12.181 0.0842231 12.0024 -0.00014495 11.9712 0.00148816C11.94 0.00312127 10.7447 0.613766 9.31499 1.35846ZM3.04463 4.60547L1.5564 5.37419V8.74798C1.5564 10.6036 1.57594 12.1217 1.59991 12.1217C1.6238 12.1217 2.35601 11.8043 3.22701 11.4164L4.81066 10.7111V7.15486L5.58453 7.57648C6.18086 7.90108 6.77756 8.22502 7.37461 8.54829L8.39079 9.09848L8.84297 8.89401C9.12656 8.76558 9.40957 8.63589 9.69202 8.50495C9.91027 8.40331 10.446 8.16199 10.8826 7.9686C11.3191 7.77511 11.7232 7.58055 11.7805 7.53621C11.8566 7.47731 10.9285 6.9644 8.34753 5.63904C6.40205 4.63999 4.74788 3.82576 4.67159 3.82966C4.59531 3.83356 3.86318 4.18263 3.04463 4.60547ZM17.6913 4.82135C16.6778 5.27892 15.8478 5.67159 15.8468 5.69398C15.8459 5.71634 16.3984 6.04482 17.0745 6.42381C17.7506 6.80289 18.3038 7.1333 18.3038 7.15819C18.3038 7.18301 17.7055 7.47291 16.9744 7.80252C16.2431 8.13204 14.3948 8.96676 12.8669 9.65745L7.7474 11.9715C6.4596 12.5537 5.29879 13.0784 5.16784 13.1377C2.53742 14.3285 1.81443 14.6589 1.71514 14.7156C1.6153 14.7727 1.59268 15.1045 1.57491 16.7695L1.55371 18.7554L2.88456 19.4335L4.21537 20.1115L6.06076 19.2787C7.07575 18.8207 7.90614 18.4219 7.90614 18.3926C7.90614 18.3633 7.71859 18.2411 7.48945 18.1209C7.26021 18.0007 6.78699 17.7346 6.43776 17.5295C6.08855 17.3244 5.74034 17.1362 5.66389 17.1112C5.58746 17.0864 5.52604 17.0428 5.52729 17.0144C5.52856 16.9861 6.34118 16.6001 7.33301 16.1566C9.25944 15.2953 10.7337 14.6314 13.8987 13.2001C15.314 12.5602 16.7295 11.9208 18.1451 11.2816C19.3892 10.7201 20.8358 10.0642 21.3597 9.82417L22.3121 9.38774L22.3333 7.37926L22.3546 5.37087L21.0048 4.67805C20.2624 4.29703 19.6278 3.98622 19.5945 3.98735C19.5613 3.9884 18.7048 4.36366 17.6913 4.82135ZM21.9505 12.0671C21.7516 12.1643 21.3587 12.3462 21.0774 12.4714C20.7961 12.5965 20.2624 12.8373 19.8913 13.0067L19.2166 13.3144L19.2012 15.0776C19.1927 16.0474 19.157 16.8365 19.1219 16.8314C19.042 16.8195 17.7775 16.1711 16.5065 15.49C15.5891 14.9985 15.5315 14.9789 15.3159 15.0857C15.1913 15.1474 14.4464 15.4815 13.6606 15.8282C12.8748 16.1748 12.2063 16.4811 12.1748 16.5088C12.1435 16.5365 13.725 17.3937 15.6893 18.4137L19.2608 20.2683L20.7865 19.4791C21.6256 19.0451 22.339 18.6492 22.3719 18.5994C22.4458 18.4874 22.4395 11.8751 22.3655 11.8841C22.3362 11.8876 22.1494 11.97 21.9505 12.0671ZM13.5019 19.8283C13.2372 19.9421 12.9726 20.056 12.7081 20.1701C11.9094 20.5157 12.0659 20.5271 11.1157 20.0541C10.4828 19.739 10.21 19.6418 10.0916 19.689C10.0028 19.7244 9.23832 20.0683 8.3927 20.4533C7.54714 20.8382 6.82597 21.1532 6.79009 21.1532C6.43532 21.1532 7.02512 21.5055 9.30104 22.6536L11.9701 23.9999L13.0932 23.4454C13.7108 23.1405 14.9567 22.5298 15.8617 22.0885C16.7667 21.647 17.496 21.2743 17.4824 21.2602C17.4686 21.2462 16.7103 20.8568 15.7971 20.3949L14.1368 19.5552L13.5019 19.8283Z" fill="#F2E2FF"/>
</svg>
