<svg width="21" height="21" viewBox="0 0 21 21" fill="none" xmlns="http://www.w3.org/2000/svg">
<path fill-rule="evenodd" clip-rule="evenodd" d="M8.49312 1.38217C7.30176 2.00278 6.32706 2.52793 6.32727 2.54929C6.3278 2.60442 9.18657 4.05221 9.28804 4.04868C9.3342 4.04714 9.66903 3.89301 10.0321 3.70621L10.6923 3.36665L11.4133 3.73726L12.1342 4.10794L13.315 3.57739C15.0941 2.77793 15.2789 2.69032 15.2499 2.66089C15.2115 2.62183 14.5733 2.27902 12.842 1.36755C12.0053 0.927023 11.1932 0.495102 11.0373 0.407703C10.8814 0.320304 10.7326 0.249997 10.7066 0.251358C10.6806 0.252719 9.68451 0.76159 8.49312 1.38217ZM3.26782 4.08801L2.02763 4.72861V7.5401C2.02763 9.08643 2.04391 10.3516 2.06389 10.3516C2.0838 10.3516 2.69397 10.0871 3.41981 9.76378L4.73951 9.176V6.2125L5.3844 6.56385C5.88135 6.83435 6.3786 7.1043 6.87614 7.3737L7.72296 7.83219L8.09977 7.6618C8.33609 7.55476 8.57194 7.44669 8.80731 7.33757C8.98919 7.25287 9.43567 7.05178 9.79945 6.89061C10.1632 6.72938 10.5 6.56725 10.5477 6.53029C10.6112 6.48121 9.83769 6.05378 7.6869 4.94931C6.06567 4.11677 4.6872 3.43825 4.62363 3.4415C4.56005 3.44475 3.94994 3.73565 3.26782 4.08801ZM15.4734 4.26791C14.6288 4.64922 13.9371 4.97644 13.9363 4.9951C13.9356 5.01374 14.3959 5.28747 14.9594 5.6033C15.5228 5.91919 15.9838 6.19454 15.9838 6.21527C15.9838 6.23596 15.4853 6.47754 14.876 6.75222C14.2666 7.02682 12.7263 7.72242 11.453 8.29799L7.1868 10.2264C6.11363 10.7115 5.14629 11.1488 5.03716 11.1982C2.84515 12.1905 2.24265 12.4659 2.15991 12.5131C2.07671 12.5607 2.05787 12.8372 2.04306 14.2247L2.02539 15.8796L3.13443 16.4447L4.24344 17.0097L5.78126 16.3157C6.62709 15.934 7.31909 15.6017 7.31909 15.5773C7.31909 15.5528 7.16279 15.451 6.97184 15.3509C6.78081 15.2507 6.38646 15.029 6.09543 14.8581C5.80442 14.6871 5.51425 14.5303 5.45054 14.5095C5.38685 14.4887 5.33567 14.4525 5.3367 14.4288C5.33776 14.4052 6.01495 14.0835 6.84147 13.7139C8.44683 12.9962 9.67538 12.443 12.3129 11.2502C13.4923 10.717 14.6718 10.1841 15.8515 9.65149C16.8883 9.18352 18.0938 8.63696 18.5304 8.43692L19.3241 8.07323L19.3417 6.39951L19.3595 4.72585L18.2346 4.14849C17.6159 3.83098 17.0871 3.57197 17.0594 3.57291C17.0317 3.57379 16.318 3.8865 15.4734 4.26791ZM19.0227 10.3061C18.857 10.387 18.5295 10.5386 18.2951 10.6429C18.0607 10.7472 17.6159 10.9479 17.3067 11.089L16.7445 11.3454L16.7317 12.8148C16.7246 13.6229 16.6948 14.2806 16.6655 14.2763C16.599 14.2664 15.5452 13.726 14.486 13.1584C13.7215 12.7488 13.6735 12.7326 13.4939 12.8215C13.39 12.873 12.7693 13.1514 12.1145 13.4403C11.4596 13.7291 10.9025 13.9843 10.8763 14.0075C10.8502 14.0305 12.1681 14.7448 13.8051 15.5949L16.7813 17.1404L18.0527 16.4827C18.7519 16.121 19.3465 15.7911 19.3739 15.7496C19.4355 15.6563 19.4302 10.1461 19.3685 10.1535C19.3441 10.1564 19.1885 10.2251 19.0227 10.3061ZM11.9822 16.7737C11.7617 16.8685 11.5412 16.9635 11.3208 17.0586C10.6551 17.3465 10.7856 17.3561 9.99372 16.9619C9.4663 16.6993 9.23896 16.6183 9.14028 16.6576C9.06626 16.6871 8.42923 16.9737 7.72455 17.2945C7.01991 17.6153 6.41894 17.8777 6.38904 17.8777C6.0934 17.8777 6.5849 18.1714 8.4815 19.1281L10.7058 20.25L11.6416 19.788C12.1563 19.5338 13.1945 19.025 13.9487 18.6572C14.7029 18.2893 15.3106 17.9787 15.2993 17.967C15.2878 17.9553 14.6559 17.6308 13.8949 17.2459L12.5113 16.5461L11.9822 16.7737Z" fill="#DEA8FE"/>
</svg>
