<svg width="24" height="24" viewBox="0 0 24 24" fill="none" xmlns="http://www.w3.org/2000/svg">
<mask id="mask0_5_738" style="mask-type:luminance" maskUnits="userSpaceOnUse" x="2" y="2" width="20" height="20">
<path d="M21.5 2.5H2.5V21.5H21.5V2.5Z" fill="white"/>
</mask>
<g mask="url(#mask0_5_738)">
<path fill-rule="evenodd" clip-rule="evenodd" d="M21.5 12C21.5 17.2467 17.2467 21.5 12 21.5C6.75329 21.5 2.5 17.2467 2.5 12C2.5 6.75329 6.75329 2.5 12 2.5C17.2467 2.5 21.5 6.75329 21.5 12ZM12.3412 9.51307C11.4172 9.8974 9.57048 10.6929 6.80104 11.8995C6.35132 12.0783 6.11574 12.2533 6.0943 12.4243C6.05805 12.7134 6.4201 12.8273 6.91312 12.9823C6.98018 13.0034 7.04967 13.0252 7.12091 13.0484C7.60596 13.2061 8.25844 13.3905 8.59764 13.3979C8.90533 13.4045 9.24874 13.2777 9.62788 13.0173C12.2155 11.2706 13.5512 10.3878 13.635 10.3687C13.6942 10.3553 13.7762 10.3384 13.8317 10.3878C13.8873 10.4372 13.8818 10.5307 13.8759 10.5558C13.8401 10.7087 12.4189 12.0299 11.6834 12.7137C11.4541 12.9268 11.2915 13.078 11.2583 13.1126C11.1838 13.1899 11.1079 13.2631 11.0349 13.3334C10.5843 13.7678 10.2464 14.0936 11.0536 14.6256C11.4416 14.8812 11.752 15.0926 12.0617 15.3035C12.3999 15.5338 12.7373 15.7636 13.1737 16.0497C13.2849 16.1226 13.3911 16.1983 13.4946 16.272C13.8882 16.5526 14.2418 16.8047 14.6787 16.7645C14.9325 16.7412 15.1947 16.5025 15.3279 15.7905C15.6426 14.1081 16.2612 10.4627 16.4042 8.96052C16.4167 8.82891 16.401 8.66048 16.3883 8.58654C16.3757 8.5126 16.3492 8.40725 16.2531 8.32927C16.1393 8.23691 15.9636 8.21743 15.885 8.21882C15.5277 8.22511 14.9795 8.41573 12.3412 9.51307Z" fill="#F2E2FF"/>
</g>
</svg>
