<svg width="21" height="21" viewBox="0 0 21 21" fill="none" xmlns="http://www.w3.org/2000/svg">
<path fill-rule="evenodd" clip-rule="evenodd" d="M20.2305 10.25C20.2305 15.4967 15.9772 19.75 10.7305 19.75C5.48376 19.75 1.23047 15.4967 1.23047 10.25C1.23047 5.00329 5.48376 0.75 10.7305 0.75C15.9772 0.75 20.2305 5.00329 20.2305 10.25ZM11.0717 7.76307C10.1477 8.1474 8.30095 8.94287 5.53151 10.1495C5.08179 10.3283 4.84621 10.5033 4.82477 10.6743C4.78852 10.9634 5.15057 11.0773 5.64359 11.2323C5.71065 11.2534 5.78014 11.2752 5.85138 11.2984C6.33643 11.4561 6.98891 11.6405 7.32811 11.6479C7.6358 11.6545 7.97921 11.5277 8.35835 11.2673C10.946 9.52063 12.2817 8.63777 12.3655 8.61874C12.4247 8.60531 12.5067 8.58843 12.5622 8.6378C12.6178 8.68717 12.6123 8.78067 12.6064 8.80576C12.5706 8.95866 11.1494 10.2799 10.4139 10.9637C10.1846 11.1768 10.022 11.328 9.98874 11.3626C9.91426 11.4399 9.83836 11.5131 9.76541 11.5834C9.31478 12.0178 8.97686 12.3436 9.78412 12.8756C10.1721 13.1312 10.4825 13.3426 10.7922 13.5535C11.1304 13.7838 11.4678 14.0136 11.9042 14.2997C12.0154 14.3726 12.1216 14.4483 12.2251 14.522C12.6187 14.8026 12.9723 15.0547 13.4092 15.0145C13.663 14.9912 13.9252 14.7525 14.0584 14.0405C14.3731 12.3581 14.9917 8.7127 15.1347 7.21052C15.1472 7.07891 15.1315 6.91048 15.1188 6.83654C15.1062 6.7626 15.0797 6.65725 14.9836 6.57927C14.8698 6.48691 14.6941 6.46743 14.6155 6.46882C14.2582 6.47511 13.71 6.66573 11.0717 7.76307Z" fill="#DEA8FE"/>
</svg>
