<svg width="25" height="23" viewBox="0 0 25 23" fill="none" xmlns="http://www.w3.org/2000/svg">
<path fill-rule="evenodd" clip-rule="evenodd" d="M3.57647 7.137C3.60647 6.842 3.49347 6.551 3.27347 6.353L1.03347 3.653V3.25H7.99147L13.3695 15.045L18.0975 3.25H24.7305V3.653L22.8145 5.49C22.6495 5.616 22.5675 5.823 22.6015 6.028V19.526C22.5675 19.73 22.6495 19.937 22.8145 20.063L24.6855 21.9V22.303H15.2735V21.9L17.2125 20.018C17.4025 19.828 17.4025 19.772 17.4025 19.481V8.571L12.0135 22.259H11.2855L5.01047 8.571V17.745C4.95847 18.13 5.08647 18.519 5.35747 18.797L7.87847 21.855V22.259H0.730469V21.855L3.25147 18.797C3.52147 18.518 3.64147 18.127 3.57647 17.745V7.137Z" fill="#DEA8FE"/>
</svg>
